<svg width="18" height="18" viewBox="0 0 18 18" fill="none" xmlns="http://www.w3.org/2000/svg">
<path d="M3.1049 17.4536H8.75197V11.4902H6.72308V9.52431H8.75197V7.06689C8.75197 5.71186 9.88966 4.60948 11.2881 4.60948H13.8242V6.57541H11.7953C11.2359 6.57541 10.7809 7.01634 10.7809 7.55838V9.52431H13.7327L13.3945 11.4902H10.7809V17.4536H15.3459C16.7443 17.4536 17.882 16.3512 17.882 14.9962V3.13503C17.882 1.77999 16.7443 0.677612 15.3459 0.677612H3.1049C1.70647 0.677612 0.568787 1.77999 0.568787 3.13503V14.9962C0.568787 16.3512 1.70647 17.4536 3.1049 17.4536ZM1.58323 3.13503C1.58323 2.32203 2.26587 1.66058 3.1049 1.66058H15.3459C16.1849 1.66058 16.8675 2.32203 16.8675 3.13503V14.9962C16.8675 15.8092 16.1849 16.4706 15.3459 16.4706H11.7953V12.4732H14.2539L14.9302 8.54134H11.7953V7.55838H14.8386V3.62651H11.2881C9.33026 3.62651 7.73753 5.16982 7.73753 7.06689V8.54134H5.70864V12.4732H7.73753V16.4706H3.1049C2.26587 16.4706 1.58323 15.8092 1.58323 14.9962V3.13503Z" fill="white"/>
</svg>
