<svg width="18" height="17" viewBox="0 0 18 17" fill="none" xmlns="http://www.w3.org/2000/svg">
<path d="M8.95814 0C4.20042 0 0.301544 3.81066 0.301544 8.42075C0.301544 13.0041 4.16489 16.776 8.95814 16.776C13.7454 16.776 17.6147 13.0097 17.6147 8.42075C17.6147 3.81066 13.7159 0 8.95814 0ZM10.4798 15.6455C9.99292 15.7438 9.47553 15.793 8.95814 15.793C8.44075 15.793 7.92335 15.7438 7.43647 15.6455V13.3454C7.43647 12.7949 7.58864 12.5984 7.79153 12.3329C7.89482 12.2185 7.95717 12.1158 8.4204 11.4385L7.63936 11.3205C5.63068 11.0355 4.83947 10.0229 4.52496 9.23656C4.11918 8.18486 4.33224 6.86758 5.0627 6.03219C5.17431 5.90433 5.26559 5.68802 5.18448 5.46199C5.03218 5.0098 5.05253 4.29229 5.15397 4.01698C5.69184 4.09147 6.2449 4.46482 6.70615 4.73462C6.91868 4.8548 7.03017 4.82306 7.13214 4.83292C7.50278 4.75817 8.08093 4.57732 8.96831 4.57732C9.51608 4.57732 10.0944 4.65591 10.6625 4.81321C10.7641 4.8109 10.9273 4.89461 11.2103 4.73462C11.6924 4.44997 12.2267 4.08942 12.7623 4.01698C12.8638 4.29229 12.8841 5.0098 12.7319 5.46199C12.6507 5.68802 12.742 5.90433 12.8537 6.03219C13.584 6.86771 13.7971 8.18486 13.3913 9.23656C13.0768 10.0229 12.2856 11.0355 10.2769 11.3205L9.49587 11.4385C9.9747 12.1386 10.0252 12.2226 10.1249 12.3329C10.3276 12.5984 10.4798 12.7949 10.4798 13.3454V15.6455ZM11.4943 15.3605V13.3454C11.4943 12.7851 11.3725 12.4116 11.2101 12.1363C12.7521 11.7334 13.8478 10.8486 14.3347 9.58059C14.8521 8.24386 14.6188 6.65141 13.7564 5.55043C13.9087 4.89192 13.9087 3.8401 13.5435 3.34861C13.3811 3.13244 13.1579 3.01443 12.8739 3.01443C12.8638 3.01443 12.8638 3.01443 12.8638 3.01443C12.0772 3.05564 11.4581 3.43949 10.7943 3.83024C10.1856 3.67294 9.56681 3.59435 8.94797 3.59435C8.31909 3.59435 7.69008 3.6828 7.13227 3.83024C6.43352 3.42195 5.82036 3.05462 5.01198 3.01443C4.75836 3.01443 4.53513 3.13244 4.3728 3.34861C4.0077 3.8401 4.0077 4.89192 4.15987 5.55043C3.29746 6.65141 3.06419 8.25359 3.58158 9.58059C4.06846 10.8486 5.16414 11.7334 6.70615 12.1363C6.58027 12.3497 6.48067 12.625 6.44144 12.9976C6.12998 13.1016 5.85986 13.1355 5.60862 13.064C5.34365 12.9881 5.1372 12.8167 4.95782 12.5244C4.55495 11.8686 3.86874 11.3332 3.08744 11.4028L3.1766 12.3819C3.53839 12.3498 3.89846 12.7207 4.0855 13.0265C4.39406 13.53 4.80975 13.8602 5.32133 14.0066C5.70108 14.115 6.04821 14.1125 6.42203 14.0352V15.3605C3.46997 14.3578 1.31599 11.6252 1.31599 8.42075C1.31599 4.35129 4.75836 0.982966 8.95814 0.982966C13.1579 0.982966 16.6003 4.35129 16.6003 8.42075C16.6003 11.6252 14.4463 14.3578 11.4943 15.3605Z" fill="white"/>
</svg>
