<svg width="18" height="17" viewBox="0 0 18 17" fill="none" xmlns="http://www.w3.org/2000/svg">
<path d="M3.01582 16.8944H15.2568C16.6552 16.8944 17.7929 15.792 17.7929 14.4369V2.57582C17.7929 1.22079 16.6552 0.118408 15.2568 0.118408H3.01582C1.61739 0.118408 0.479706 1.22079 0.479706 2.57582V14.4369C0.479706 15.792 1.61739 16.8944 3.01582 16.8944ZM1.49415 2.57582C1.49415 1.76283 2.17679 1.10137 3.01582 1.10137H15.2568C16.0958 1.10137 16.7784 1.76283 16.7784 2.57582V14.4369C16.7784 15.2499 16.0958 15.9114 15.2568 15.9114H3.01582C2.17679 15.9114 1.49415 15.2499 1.49415 14.4369V2.57582Z" fill="white"/>
<path d="M9.13625 12.9297C11.6533 12.9297 13.7013 10.9453 13.7013 8.50636C13.7013 6.06737 11.6533 4.08301 9.13625 4.08301C6.61917 4.08301 4.57126 6.06737 4.57126 8.50636C4.57126 10.9453 6.61917 12.9297 9.13625 12.9297ZM9.13625 5.06597C11.0941 5.06597 12.6868 6.60928 12.6868 8.50636C12.6868 10.4034 11.0941 11.9467 9.13625 11.9467C7.17843 11.9467 5.5857 10.4034 5.5857 8.50636C5.5857 6.60928 7.17843 5.06597 9.13625 5.06597Z" fill="white"/>
<path d="M13.9203 4.82742C14.7493 4.82742 15.4238 4.17386 15.4238 3.37056C15.4238 2.56726 14.7493 1.9137 13.9203 1.9137C13.0913 1.9137 12.4168 2.56726 12.4168 3.37056C12.4168 4.17386 13.0913 4.82742 13.9203 4.82742ZM13.9203 2.88494C14.1966 2.88494 14.4215 3.10284 14.4215 3.37056C14.4215 3.63828 14.1966 3.85618 13.9203 3.85618C13.644 3.85618 13.4192 3.63828 13.4192 3.37056C13.4192 3.10284 13.644 2.88494 13.9203 2.88494Z" fill="white"/>
</svg>
