<svg width="18" height="15" viewBox="0 0 18 15" fill="none" xmlns="http://www.w3.org/2000/svg">
<path d="M17.7038 2.62973C16.6147 2.67836 16.6385 2.67439 16.5154 2.68438L17.1604 0.899553C17.1604 0.899553 15.1471 1.61719 14.6367 1.74557C13.2963 0.578169 11.3038 0.526589 9.87938 1.37491C8.7129 2.06977 8.0868 3.26302 8.29563 4.65773C6.02542 4.35248 4.11263 3.30974 2.60246 1.55192L2.12482 0.996057L1.76792 1.63115C1.31683 2.43364 1.16705 3.35121 1.34603 4.21476C1.41947 4.56904 1.54429 4.90693 1.7172 5.22332L1.30746 5.06948L1.25885 5.73285C1.20958 6.40672 1.44113 7.19335 1.87835 7.83688C2.00145 8.01812 2.15996 8.21714 2.36087 8.41348L2.14913 8.382L2.40749 9.14213C2.7471 10.1408 3.45245 10.9135 4.36783 11.3431C3.45364 11.719 2.71513 11.9588 1.50123 12.3457L0.390625 12.6995L1.41643 13.2429C1.80755 13.4502 3.18959 14.1422 4.55513 14.3498C7.59054 14.8111 11.0081 14.4354 13.3088 12.4276C15.2467 10.7365 15.8826 8.33093 15.7505 5.82756C15.7305 5.44859 15.8377 5.08688 16.0522 4.80927C16.4819 4.25341 17.7012 2.63344 17.7038 2.62973V2.62973ZM15.241 4.22052C14.8848 4.68141 14.7063 5.27004 14.7383 5.87774C14.8716 8.40286 14.1625 10.3611 12.6307 11.6978C10.8413 13.2595 7.95497 13.8724 4.71219 13.3795C4.12492 13.2903 3.51797 13.0905 3.01563 12.891C4.03338 12.5517 4.81931 12.2492 6.08855 11.6671L7.8604 10.8545L5.90416 10.7332C4.96712 10.6751 4.18687 10.235 3.70725 9.5206C3.96192 9.50626 4.20747 9.46633 4.45197 9.40029L6.31773 8.89677L4.43638 8.45034C3.52219 8.2334 3.0011 7.70339 2.7249 7.29689C2.54355 7.02978 2.42506 6.75613 2.354 6.50387C2.54262 6.55289 2.76255 6.58783 3.11721 6.62187L4.85854 6.78877L3.47887 5.74591C2.48477 4.9946 2.08639 3.86586 2.37843 2.78075C5.48094 5.89886 9.1237 5.6645 9.49038 5.74693C9.40967 4.98731 9.40756 4.98552 9.38642 4.9132C8.91685 3.30475 9.94595 2.48804 10.4101 2.21158C11.3796 1.63422 12.9186 1.54718 13.9846 2.49841C14.2148 2.7037 14.5261 2.78447 14.8175 2.71433C15.0791 2.65136 15.2937 2.58467 15.5039 2.5121L15.0664 3.72264L15.6249 3.72302C15.5195 3.85997 15.393 4.02392 15.241 4.22052Z" fill="white"/>
</svg>
