<svg width="104" height="28" viewBox="0 0 104 28" fill="none" xmlns="http://www.w3.org/2000/svg">
<path d="M16.0901 27.1777C13.1732 27.1777 10.1496 27.1523 7.09048 27.1013L6.39683 27.0928C4.94729 27.0674 3.30211 27.0419 1.87035 26.9994C1.06999 26.974 0.411916 26.3711 0.39413 25.607C0.376344 24.8174 1.01663 24.1721 1.84367 24.1467C1.84367 24.1467 1.84367 24.1467 1.85256 24.1467C2.15492 24.1382 2.35057 23.841 2.23496 23.5778C1.46128 21.8543 1.0611 19.9694 1.0611 18.0421C1.0611 15.045 2.02153 12.1752 3.83568 9.73847C5.40083 7.64135 7.49955 6.0027 9.92731 4.96688C9.96288 4.71216 10.0162 4.47443 10.0963 4.26217C10.372 3.50653 10.8077 2.52164 11.6792 1.67261C12.8175 0.560365 14.3293 0 16.179 0C18.0376 0 19.5672 0.577346 20.7144 1.70657C21.7815 2.75938 22.1373 3.95652 22.244 4.415C22.2795 4.5933 22.3062 4.78858 22.324 5.01782C24.7251 6.07063 26.7882 7.70078 28.3267 9.78092C30.1231 12.2092 31.0746 15.0619 31.0746 18.0421C31.0746 19.9779 30.6744 21.8712 29.9007 23.6203C29.794 23.8665 29.9719 24.1467 30.2565 24.1551C30.2654 24.1551 30.2654 24.1551 30.2742 24.1551C31.0746 24.1806 31.7327 24.7834 31.7505 25.5476C31.7683 26.3372 31.128 26.9824 30.3009 27.0079C28.798 27.0504 27.1528 27.0843 25.2853 27.1183C22.2351 27.1692 19.2737 27.1947 16.4725 27.1947L16.0901 27.1777Z" fill="white"/>
<path d="M11.3061 6.0791L8.83383 7.26776L7.14418 8.49037L5.25889 10.4771L4.12949 12.2177L3.3647 13.9582L2.75999 16.5223L2.68884 18.8402L3.00899 20.9288L3.66706 23.2467L5.26778 25.5815H27.002L28.247 23.1618L29.1541 20.8184L29.4742 17.3119L28.9051 14.3487L27.9091 12.0394L26.4862 9.99317L24.761 8.30358L23.2759 7.08097L20.777 6.21495L11.3061 6.0791Z" fill="#008BCA"/>
<path d="M29.1986 19.6213C29.2786 19.1203 29.2342 18.6873 29.0474 18.2968C28.8073 17.8043 28.3716 17.4477 27.8202 17.2779C26.7619 16.9638 23.5427 15.2827 21.5507 14.1874C21.3906 14.0516 21.2395 13.9242 21.0972 13.8139L21.1238 13.5167C21.3817 12.9818 21.5863 12.4129 21.7375 11.8186C21.773 11.7846 21.8086 11.7507 21.8442 11.7167C22.2355 11.3262 22.52 10.7488 22.5912 10.2139C23.1603 9.22904 23.2137 8.08284 23.0536 7.25927L21.4173 6.29137C21.4173 6.29137 21.1416 6.22345 20.7326 6.12156C20.6703 6.10458 20.8304 6.30835 20.5903 7.14041C20.5547 7.25927 20.5547 8.49038 20.5191 8.62623C20.4658 8.81302 20.5102 9.96771 20.448 10.1715C20.4124 10.2988 20.3502 11.1309 20.3146 11.2667C20.2523 11.4875 19.9055 12.2601 19.8433 12.4894C19.781 12.7101 19.6298 13.3554 19.5765 13.5846C19.532 13.7629 19.5587 14.5695 19.5053 14.7478C19.4342 15.028 20.3235 14.7308 20.2434 15.0025C20.1901 15.2063 21.1327 15.8091 21.3195 15.9025C22.938 16.743 23.7028 17.0572 23.6139 16.9298L25.0278 17.7024C26.1305 18.2628 26.9042 18.4496 27.589 18.7298C27.6601 18.9845 27.7224 19.4345 27.7224 20.0798L28.0603 21.4297L28.3982 22.5929L28.914 21.608L29.252 19.9439L29.1986 19.6213Z" fill="#047FA6"/>
<path d="M6.02363 25.6155H6.72617C7.10856 25.6155 8.36246 25.5645 8.92271 25.5645C9.70528 25.5645 11.4483 25.6155 11.8485 25.6155H12.6933C13.0579 25.6155 14.4541 25.5815 14.9788 25.5815C15.3434 25.5815 16.2238 25.6155 16.4194 25.6155H17.2642C17.4866 25.6155 18.7493 25.5985 19.0784 25.5985C19.5853 25.5985 20.7325 25.6155 20.9904 25.6155H22.5644C22.68 25.6155 23.1158 25.6155 23.2314 25.6155H23.9695C24.174 25.6155 24.841 25.6155 25.0366 25.6155H25.7747C25.8281 25.6155 26.0415 25.6155 26.0949 25.6155H26.7796L27.3132 24.9957L28.3537 23.0514L27.6867 20.0288L27.6067 18.7637L24.8054 17.5241L22.1642 16.1402L20.439 15.2912L19.523 14.7648L12.6844 14.9091L12.3643 14.994L11.4661 15.5119L10.1766 16.3779L8.04231 17.1506L5.41891 18.3307L4.99206 18.7722V19.3071L4.87645 19.7911L3.88045 22.9835L3.78262 23.1872L5.26773 25.5985C5.57899 25.607 5.9347 25.6155 6.02363 25.6155Z" fill="#293F6E"/>
<path d="M24.9211 21.9901C24.9211 21.9901 24.8055 24.6136 25.9794 25.5561C26.1127 25.6664 24.1118 25.5561 24.1118 25.5561L24.2097 24.325L24.9211 21.9901Z" fill="#203456"/>
<path d="M11.724 7.53953L11.475 6.36786L11.5194 4.63582L12.1953 3.40471L13.378 2.22454L14.6942 1.68116L16.4728 1.43494L17.8956 1.70663L19.0428 2.25851L20.0121 3.2349L20.7058 4.28771L20.7947 5.60372L20.5991 7.15746L21.2038 6.90275L21.4528 7.20841L21.5595 8.11688L21.435 8.94045L20.8836 9.84892V10.5112L20.4123 10.8847L20.1011 11.8781L19.4964 13.4234L18.7582 14.2045L18.3758 14.6545L17.4866 15.512L15.9036 15.5969L14.4363 15.1894L13.5381 14.213L12.5421 12.9734L11.973 11.0206L11.5906 10.7744L11.306 10.3923V9.80647L10.7902 8.6263L10.7102 7.53104L11.0036 6.96219L11.386 7.00464L11.724 7.53953Z" fill="#FFCDAF"/>
<path d="M21.3729 7.08098L20.7326 6.89419L20.7948 5.03479L20.3946 3.7018L19.2652 2.40277L18.0647 1.78297L16.3306 1.44336L15.0589 1.51128L14.5075 1.74901C17.2466 2.0292 19.3542 4.27066 17.4511 7.7687C17.4511 7.7687 16.8819 8.08284 16.4106 8.05737C16.4106 8.05737 16.295 8.43944 16.6418 8.63472C16.6418 8.63472 17.2288 11.9884 15.7348 12.0648L15.05 11.9629L14.8366 11.8016C14.8366 11.8016 15.0411 12.3365 15.3701 12.3365C15.3701 12.3365 15.6014 12.6676 16.1172 12.6846C16.2505 12.6846 15.8415 13.1007 16.0193 13.0497C16.0193 13.0497 16.8642 13.1601 16.1883 13.9667C15.9037 13.9582 15.6014 13.8988 15.2812 13.7799C15.2368 13.7629 15.2012 13.8139 15.2368 13.8478C15.3613 13.9837 16.1794 13.9412 15.6547 14.3572C15.4947 14.4506 15.5658 14.595 15.717 14.5695C15.7881 14.561 15.8504 14.5525 15.9215 14.5525C16.046 14.5355 16.1972 14.6119 16.3217 14.6204L16.7574 15.5374L17.8157 15.2912L18.127 14.9346L19.1852 14.8412L19.532 14.4167L19.4075 13.211L19.9589 12.2346L20.3858 10.8167L20.6436 10.7064L20.9994 9.80639L21.5151 8.50736L21.3729 7.08098Z" fill="#EBBBA1"/>
<path d="M15.6991 9.37334C15.6991 9.37334 15.6369 9.13561 15.6546 8.90637C15.6546 8.90637 15.4145 9.05071 15.29 9.31391C15.0855 9.15259 14.7031 8.95731 14.2496 8.97429C13.7249 8.99128 13.3514 9.22052 13.1379 9.30542C13.0846 9.3224 13.0846 9.39881 13.1379 9.4158C13.4403 9.52617 14.1162 9.74692 14.8009 9.69598C14.8009 9.69598 14.9788 9.70447 15.2011 9.69598C15.2989 9.78937 15.4501 10.0101 15.3701 10.4007C15.2634 10.9016 14.7565 11.012 14.712 11.479L14.6942 11.5044C14.6675 11.5384 14.632 11.5724 14.5875 11.6063C14.5075 11.6657 14.4185 11.7082 14.3207 11.7591C14.134 11.8525 13.9294 11.9544 13.7605 12.1072C13.5915 12.2601 13.4759 12.4554 13.4314 12.6591C13.387 12.8629 13.4136 13.0667 13.4759 13.2535C13.5026 13.0582 13.5292 12.8714 13.6004 12.6931C13.6626 12.5233 13.7693 12.3705 13.9116 12.2431C14.0539 12.1157 14.2318 12.0054 14.4096 11.8865C14.4986 11.8271 14.5875 11.7591 14.6586 11.6742C14.6764 11.6573 14.6853 11.6403 14.6942 11.6233C14.6942 11.6488 14.7031 11.6827 14.7031 11.7167C14.7831 12.1412 14.9254 11.7167 14.9254 11.7167C14.9254 11.7167 14.8454 10.9186 15.6813 10.8931L15.6369 10.0526L15.6991 9.37334Z" fill="#EBBBA1"/>
<path d="M12.7378 8.73705C12.6934 8.75404 12.6489 8.70306 12.6845 8.66907C12.8534 8.45666 13.2625 8.07431 13.9561 8.11679C14.6231 8.15927 14.6676 8.37169 15.21 8.47365C15.3612 8.49914 15.4057 8.68607 15.2901 8.77103C15.2189 8.82201 15.0855 8.89848 14.9522 8.89848C14.4986 8.89848 14.2407 8.5926 13.805 8.55862C13.5115 8.53313 13.138 8.56711 12.7378 8.73705Z" fill="#EBBBA1"/>
<path d="M14.4779 11.5385C14.4779 11.5809 14.4779 11.6318 14.4602 11.6743C14.4424 11.7168 14.4158 11.7592 14.3803 11.7932C14.3182 11.8611 14.2384 11.912 14.1585 11.963C13.9988 12.0564 13.848 12.1328 13.7238 12.2347C13.5996 12.3366 13.4931 12.4639 13.431 12.6083C13.36 12.7526 13.3157 12.9224 13.2802 13.0922C13.2447 12.9224 13.2447 12.7356 13.2979 12.5573C13.3512 12.379 13.4576 12.2092 13.6085 12.0903C13.7593 11.9715 13.9367 11.8951 14.0964 11.8271C14.1763 11.7932 14.2561 11.7592 14.3271 11.7168C14.3626 11.6913 14.3892 11.6658 14.4158 11.6403L14.4336 11.6149C14.4424 11.6064 14.4424 11.5979 14.4513 11.5894C14.4602 11.5809 14.4691 11.5639 14.4779 11.5385Z" fill="#272A24"/>
<path d="M17.6823 11.5385C17.6911 11.5554 17.7 11.5809 17.7089 11.5979C17.7177 11.6064 17.7177 11.6149 17.7266 11.6234L17.7444 11.6488C17.771 11.6828 17.7976 11.7083 17.8331 11.7252C17.9041 11.7677 17.9839 11.8017 18.0638 11.8356C18.2235 11.9035 18.4009 11.9715 18.5517 12.0988C18.7025 12.2177 18.8179 12.3875 18.8622 12.5658C18.9155 12.7441 18.9155 12.9224 18.88 13.1007C18.8445 12.9309 18.8001 12.7611 18.7292 12.6167C18.6582 12.4639 18.5606 12.345 18.4364 12.2432C18.3122 12.1413 18.1525 12.0649 18.0016 11.9715C17.9218 11.9205 17.842 11.8696 17.7798 11.8017C17.7444 11.7677 17.7177 11.7252 17.7 11.6828C17.6823 11.6318 17.6734 11.5809 17.6823 11.5385Z" fill="#272A24"/>
<path d="M16.135 12.4809C15.8504 12.4809 15.6903 12.345 15.5836 12.2601C15.5302 12.2176 15.5036 12.1922 15.4858 12.1922C15.1034 12.1837 14.8366 12.0224 14.7477 11.7592C14.6943 11.6148 14.8099 11.428 14.9166 11.3007C14.9255 11.2837 14.9433 11.2837 14.9522 11.2837C14.9611 11.2837 14.9789 11.2922 14.9878 11.3007C14.9967 11.3092 14.9967 11.3177 14.9967 11.3261C14.9878 11.479 14.9967 11.5978 15.0322 11.6743C15.1034 11.8186 15.2635 11.9035 15.5036 11.912C15.6281 11.912 15.7081 11.9799 15.7881 12.0478C15.8771 12.1242 15.9749 12.2007 16.1527 12.2007C16.3217 12.2007 16.4017 12.1327 16.4818 12.0733C16.5529 12.0224 16.633 11.9629 16.7397 11.9629H16.7664C16.962 11.9629 17.1132 11.8865 17.2288 11.7422C17.2822 11.6658 17.3177 11.5469 17.3266 11.3686C17.3266 11.3431 17.3533 11.3346 17.3711 11.3346C17.38 11.3346 17.3978 11.3346 17.4067 11.3601C17.4867 11.5129 17.5756 11.7252 17.4956 11.8695C17.3711 12.1158 17.1043 12.2601 16.7753 12.2601C16.7664 12.2601 16.7397 12.2601 16.7397 12.2601H16.7308C16.713 12.2686 16.6952 12.2856 16.6596 12.311C16.5529 12.362 16.4018 12.4809 16.135 12.4809Z" fill="#272A24"/>
<path d="M15.5657 11.2498C15.6012 11.0715 15.619 10.8932 15.6278 10.7149C15.6278 10.5366 15.619 10.3668 15.6101 10.1885C15.6012 10.0102 15.5835 9.83186 15.5923 9.64507C15.6012 9.45828 15.619 9.27149 15.6899 9.10168C15.7077 9.28847 15.7343 9.45828 15.7609 9.63658C15.7875 9.81488 15.8141 9.99318 15.823 10.18C15.8319 10.3668 15.8319 10.5535 15.7964 10.7403C15.7609 10.9186 15.6899 11.1054 15.5657 11.2498Z" fill="#272A24"/>
<path d="M12.7022 8.48227C12.6577 8.49926 12.6132 8.44828 12.6488 8.41429C12.8178 8.21887 13.2091 7.94697 13.9116 7.99795C14.5875 8.04893 14.6319 8.25285 15.1922 8.35482C15.3434 8.38031 15.4234 8.47377 15.2989 8.55024C15.2278 8.60123 15.1388 8.63521 15.0054 8.62672C14.543 8.61822 14.3207 8.3973 13.876 8.34632C13.5737 8.32933 13.1113 8.33782 12.7022 8.48227Z" fill="#272A24"/>
<path d="M12.6934 13.4062V14.5949L14.2941 15.2911L13.5115 14.0515L12.6934 13.4062Z" fill="#EBBBA1"/>
<path d="M11.8102 7.78562L11.3844 6.94507L10.8787 7.03846L10.7101 7.65826L10.6746 8.60918L11.3755 9.84878L11.3045 10.5195L11.9344 10.8676L11.7925 9.9167L11.8368 8.51579L11.8102 7.78562Z" fill="#EBBBA1"/>
<path d="M12.6934 14.7648L13.0935 18.577L14.8365 18.4496L14.5875 17.6175L14.7832 17.2355L15.9926 15.911L14.2052 15.2148L12.6934 14.7648Z" fill="white"/>
<path d="M14.5342 1.84241C14.5342 1.84241 11.4484 3.43011 11.724 6.73287L11.4661 6.35929L11.3861 5.3829L11.7952 4.0584L12.8534 2.6405L13.8583 1.84241H14.5342V1.84241Z" fill="white"/>
<path d="M7.25977 20.2495C7.2242 20.8269 7.51767 24.4268 6.94853 25.072C6.8596 25.1739 6.6106 25.3522 6.3616 25.5305C6.03256 25.7598 8.04235 25.6409 8.04235 25.6409L7.83781 23.3825L7.25977 20.2495Z" fill="#203456"/>
<path d="M12.4977 15.2062C12.4977 15.2062 10.8081 16.1572 10.0433 17.8977L9.81207 17.643L10.2656 16.7005L11.0037 15.843L12.2487 15.1383L12.4977 15.2062Z" fill="white"/>
<path d="M10.2212 16.5223C10.2212 16.5223 5.54351 18.4156 5.37455 18.8826C5.20558 19.3496 5.37455 19.6637 5.37455 19.6637L4.9299 19.1288L5.07219 18.6703L5.79251 18.1439L7.34877 17.3968L9.80321 16.361L10.0967 16.3779L10.2212 16.5223Z" fill="white"/>
<path d="M13.0046 9.14428L13.7783 8.90637L14.6142 9.03382L14.7209 9.33121L14.2496 9.3737H13.636L13.0046 9.14428Z" fill="white"/>
<path d="M15.0945 9.32281C14.9433 9.16137 14.5342 8.81299 13.9918 8.83848C13.4671 8.87247 13.1114 9.03391 12.8979 9.12738C12.8446 9.15287 12.8446 9.22085 12.9068 9.23784C13.2092 9.3398 13.8939 9.53523 14.5787 9.46726L14.3475 9.58622C14.3208 9.59471 14.3386 9.6372 14.3653 9.6287C14.5253 9.61171 14.8277 9.56072 15.0856 9.44177C15.1212 9.41628 15.1301 9.3568 15.0945 9.32281ZM13.476 9.0849C13.5293 9.05941 13.6183 9.02542 13.7339 8.99143C13.7517 8.98293 13.7694 8.99993 13.7606 9.01692C13.7517 9.04241 13.7517 9.0679 13.7517 9.09339C13.7517 9.15287 13.7694 9.20385 13.7961 9.24634C13.805 9.25484 13.7961 9.26333 13.7872 9.26333C13.6805 9.23784 13.5649 9.19536 13.4671 9.13588C13.4493 9.13588 13.4493 9.10189 13.476 9.0849ZM14.6676 9.27183C14.6143 9.28882 14.5164 9.30582 14.4008 9.31431C14.3831 9.31431 14.3742 9.29732 14.3831 9.28882C14.4275 9.22934 14.4453 9.16137 14.4453 9.0849C14.4453 9.0764 14.4453 9.05941 14.4453 9.05091C14.5253 9.09339 14.6054 9.14437 14.6854 9.21235C14.7032 9.22934 14.6943 9.26333 14.6676 9.27183Z" fill="#272A24"/>
<path d="M19.2118 9.13579L18.447 8.90637L17.6022 9.03382L17.5044 9.33121L17.9668 9.3737H18.5893L19.2118 9.13579Z" fill="white"/>
<path d="M17.1843 9.45023C17.4422 9.56919 17.7356 9.62017 17.9046 9.63717C17.9313 9.63717 17.9402 9.60318 17.9224 9.59468L17.6912 9.47572C18.3759 9.5437 19.0607 9.34827 19.363 9.24631C19.4164 9.22932 19.4164 9.15284 19.363 9.13585C19.1585 9.05088 18.8028 8.88094 18.2692 8.85545C17.7268 8.82996 17.3177 9.17833 17.1665 9.33977C17.122 9.36526 17.1398 9.42474 17.1843 9.45023ZM18.785 9.14435C18.6872 9.20382 18.5805 9.24631 18.4649 9.2718C18.456 9.2718 18.4471 9.2633 18.4471 9.25481C18.4738 9.21232 18.4915 9.15284 18.4915 9.10186C18.4915 9.07637 18.4915 9.05088 18.4826 9.02539C18.4826 9.0084 18.4915 8.9914 18.5093 8.9999C18.6249 9.02539 18.7139 9.06787 18.7672 9.08487C18.8028 9.09336 18.8028 9.12735 18.785 9.14435ZM17.5756 9.21232C17.6556 9.14435 17.7356 9.08487 17.8157 9.05088C17.8157 9.05938 17.8157 9.07637 17.8157 9.08487C17.8157 9.16134 17.8335 9.22932 17.8779 9.28879C17.8868 9.29729 17.8779 9.31428 17.8601 9.31428C17.7445 9.30579 17.6467 9.28879 17.5934 9.2718C17.5578 9.2633 17.5489 9.22931 17.5756 9.21232Z" fill="#272A24"/>
<path d="M16.1615 13.1858C16.8552 13.1858 17.1487 13.2878 17.4688 13.2878C17.7445 13.2878 18.0113 13.1518 18.0113 13.1518C18.0735 13.1943 18.1891 13.1178 18.2069 13.0584C18.2247 12.9904 17.9935 12.8035 17.9757 12.8969C17.9579 12.9904 17.7534 13.1093 17.62 13.1093C17.4777 13.1093 17.0597 12.8035 16.7663 12.7865C16.6329 12.778 16.3928 12.8374 16.2594 12.8714C16.1971 12.8884 16.1349 12.8884 16.0637 12.8714C15.9303 12.8374 15.6902 12.778 15.5568 12.7865C15.2634 12.8035 14.8454 13.1093 14.7031 13.1093C14.5608 13.1093 14.3652 12.9904 14.3474 12.8969C14.3296 12.8035 14.0984 12.9904 14.1162 13.0584C14.134 13.1263 14.2585 13.1943 14.3118 13.1518C14.3118 13.1518 14.5786 13.2878 14.8543 13.2878C15.1744 13.2878 15.4679 13.1858 16.1615 13.1858Z" fill="#272A24"/>
<path d="M17.3622 13.5252C17.3888 13.4997 17.3533 13.4572 17.3177 13.4742C16.9175 13.6357 16.5262 13.6867 16.1883 13.6782C15.8504 13.6867 15.468 13.6442 15.0856 13.4912C15.0411 13.4742 15.0055 13.5252 15.0411 13.5592C15.1745 13.6952 15.4057 13.8906 15.7436 13.9925C15.7259 14.001 15.6992 14.001 15.6814 14.0095C15.6102 14.035 15.548 14.069 15.4769 14.103C15.3168 14.1965 15.3612 14.222 15.5124 14.1965C15.5836 14.188 15.6458 14.171 15.717 14.1625C15.8504 14.1455 15.9837 14.137 16.1171 14.137C16.2505 14.137 16.3839 14.1455 16.5173 14.1625C16.6151 14.171 16.713 14.188 16.8197 14.2135C16.8553 14.222 16.873 14.1795 16.8464 14.1625C16.7663 14.103 16.6774 14.052 16.5796 14.018C16.962 13.8991 17.2288 13.6612 17.3622 13.5252Z" fill="#272A24"/>
<path d="M10.6747 18.8401L9.74098 18.6533C9.54533 18.6109 9.44751 18.4071 9.54533 18.2458L9.81212 17.7618L10.1678 17.9062L11.2528 18.3052L11.0482 18.6788L10.6747 18.8401Z" fill="#203456"/>
<path d="M15.8326 16.2676C15.4768 16.5393 15.1567 16.8449 14.8988 17.193C14.7565 17.3713 14.7298 17.6091 14.8099 17.8213L15.0856 18.5175L17.1131 18.4921L17.4422 17.8468C17.5578 17.6175 17.5311 17.3459 17.371 17.1506C17.0865 16.8025 16.7219 16.5223 16.3217 16.2506C16.1705 16.1572 15.966 16.1657 15.8326 16.2676Z" fill="#BF3F4A"/>
<path d="M4.77869 20.1138C4.77869 20.1138 5.38198 20.5468 5.51506 21.6166C5.64814 22.6864 5.9143 20.9883 5.60378 20.3855C5.29326 19.7826 5.00049 19.6553 5.00049 19.6553L4.77869 20.1138Z" fill="#203456"/>
<path d="M16.0726 16.31C16.0726 16.31 16.9263 17.21 16.873 17.6939C16.8107 18.1779 16.206 18.509 16.206 18.509H17.2643L17.7534 17.6005L17.1575 16.8958C17.1575 16.8958 16.5884 16.3949 16.5617 16.3694C16.5261 16.3439 16.0815 16.1826 16.0815 16.1826V16.31H16.0726Z" fill="#A43447"/>
<path d="M19.5586 8.48227C19.6031 8.49926 19.6476 8.44828 19.612 8.41429C19.443 8.21887 19.0518 7.94697 18.3492 7.99795C17.6734 8.04893 17.6289 8.25285 17.0687 8.35482C16.9175 8.38031 16.8374 8.47377 16.9619 8.55024C17.0331 8.60123 17.122 8.63521 17.2554 8.62672C17.7178 8.61822 17.9402 8.3973 18.3848 8.34632C18.6871 8.32933 19.1496 8.33782 19.5586 8.48227Z" fill="#272A24"/>
<path d="M8.78939 25.5051C9.57196 25.5051 11.315 25.556 11.7151 25.556H12.56C12.9246 25.556 14.3208 25.5221 14.8454 25.5221C15.2101 25.5221 16.0904 25.556 16.2861 25.556H17.1309C17.3532 25.556 18.616 25.5391 18.9451 25.5391C19.452 25.5391 20.5991 25.556 20.857 25.556H22.4311C22.5467 25.556 22.9824 25.556 23.098 25.556H23.8361C23.9162 25.556 24.0851 25.556 24.263 25.556L25.0634 20.4109L25.1879 19.7062L24.4498 19.1967L19.3897 18.5854L15.1478 18.4496L12.1865 18.5854L9.16289 18.8826L7.5266 19.443L7.31317 20.0543L8.08685 25.5136C8.36253 25.5136 8.61153 25.5051 8.78939 25.5051Z" fill="#E0DFDC"/>
<path d="M17.3266 18.4156L19.203 18.577L19.3452 16.9977L19.532 14.7648L18.1002 14.9855L16.3661 15.9789L17.8423 17.643L17.3266 18.4156Z" fill="white"/>
<path d="M18.7316 18.6619C18.7316 18.6619 22.7779 19.3666 23.0002 21.2684C23.187 22.9071 22.4844 24.6901 18.6694 25.5985C17.8068 25.8023 24.2008 25.5476 24.2008 25.5476L25.0189 20.3939L24.9567 19.5618L23.9162 19.0185L20.5725 18.7213L18.7316 18.6619Z" fill="#C3C3C3"/>
<path d="M18.8828 18.5769C18.8828 18.5769 7.90012 19.0779 7.31318 20.0627L7.25983 19.6722L7.57997 19.375L8.53151 19.1373L10.6213 18.8826L13.9651 18.56L17.122 18.526L18.8828 18.5769Z" fill="white"/>
<path d="M16.2684 23.6882C16.9068 23.6882 17.4244 23.2663 17.4244 22.7458C17.4244 22.2253 16.9068 21.8033 16.2684 21.8033C15.6299 21.8033 15.1123 22.2253 15.1123 22.7458C15.1123 23.2663 15.6299 23.6882 16.2684 23.6882Z" fill="#C3C3C3"/>
<path d="M21.0616 18.56L22.2177 18.2628C22.4133 18.2204 22.5111 18.0166 22.4133 17.8553L22.1465 17.3713L21.7908 17.5157L20.7948 17.9826V18.3053L21.0616 18.56Z" fill="#203456"/>
<path d="M16.2861 23.8835C15.5836 23.8835 14.9789 23.4335 14.8811 22.8392C14.8277 22.525 14.9789 22.2788 15.1212 22.126C15.3968 21.8118 15.8771 21.5911 16.2861 21.5911C16.6952 21.5911 17.1665 21.8118 17.4511 22.126C17.5845 22.2788 17.7446 22.525 17.6912 22.8392C17.5934 23.4335 16.9887 23.8835 16.2861 23.8835ZM16.2861 21.8967C15.9749 21.8967 15.6814 22.0156 15.4947 22.2194C15.3346 22.3807 15.2634 22.5844 15.2812 22.7882C15.3257 23.2382 15.7615 23.5778 16.2861 23.5778C16.8108 23.5778 17.2466 23.2382 17.291 22.7882C17.3088 22.5844 17.2377 22.3807 17.0776 22.2194C16.8908 22.0156 16.5974 21.8967 16.2861 21.8967Z" fill="#272A24"/>
<path d="M30.2569 25.4202C29.3053 25.3948 28.3538 25.3693 27.4022 25.3523C28.9407 23.1873 29.75 20.6741 29.75 18.0421C29.75 15.3252 28.8874 12.7186 27.2511 10.5111C25.677 8.38851 23.5161 6.78382 20.9905 5.84988C21.026 5.34895 21.0171 4.95839 20.9549 4.67821C20.8926 4.39802 20.6259 3.43012 19.7721 2.58957C18.8829 1.71506 17.6823 1.27356 16.1972 1.27356C14.721 1.27356 13.5293 1.70657 12.6578 2.55561C11.9642 3.23484 11.6085 4.04992 11.3773 4.67821C11.2705 4.97537 11.2261 5.35744 11.2617 5.82441C8.71828 6.74137 6.53953 8.34605 4.9477 10.4771C3.29362 12.6931 2.42212 15.3082 2.42212 18.0421C2.42212 20.6826 3.23137 23.1957 4.76984 25.3608C3.89834 25.3778 2.77784 25.4032 1.90633 25.4287C1.7018 25.4372 1.7018 25.7259 1.90633 25.7259C3.56041 25.7768 5.48127 25.8023 7.13535 25.8278C10.1589 25.8787 13.1825 25.9042 16.2061 25.9042C19.2297 25.9042 22.2533 25.8787 25.2768 25.8278C26.9398 25.8023 28.6117 25.7683 30.2746 25.7174C30.4525 25.7174 30.4614 25.4287 30.2569 25.4202ZM20.9104 6.4527C20.9193 6.41874 20.9549 6.39326 20.9905 6.41025C25.9171 8.31209 29.2075 12.9394 29.2075 18.0421C29.2075 19.3496 28.9941 20.6147 28.585 21.8203C28.5405 21.9562 28.336 21.9477 28.3093 21.8118L27.8647 19.8251C27.838 19.7147 27.838 19.5958 27.8558 19.477C27.9002 19.2307 27.9002 19.01 27.8202 18.8402C27.7402 18.6789 27.6068 18.5685 27.4111 18.5175C25.8282 18.0421 21.0794 15.427 20.7326 15.2403C20.5103 15.0365 20.2879 14.8582 20.0834 14.7138C19.8255 14.5355 19.6832 14.2469 19.7099 13.9497L19.7899 13.1771C20.0656 12.6507 20.3235 11.9884 20.4925 11.1818C20.5103 11.0885 20.5814 11.0035 20.6703 10.9696C20.7415 10.9356 20.8037 10.8932 20.8571 10.8422C21.0972 10.6045 21.2573 10.1885 21.2395 9.95923C21.2395 9.89131 21.2573 9.81489 21.3017 9.75546C21.8531 8.94887 21.8264 7.87059 21.6574 7.27627C21.5774 7.01306 21.4529 6.84326 21.2839 6.78382C21.1594 6.73288 21.026 6.73288 20.9015 6.78382C20.8838 6.79231 20.8749 6.78382 20.8749 6.78382C20.8749 6.78382 20.866 6.77533 20.866 6.75835C20.8838 6.63949 20.8926 6.54609 20.9104 6.4527ZM20.5458 18.4072L20.6881 18.5175C20.4658 18.4921 20.2346 18.4751 20.0123 18.4581C19.9678 18.4581 19.8522 18.4496 19.701 18.4326C19.5587 18.4241 19.4609 18.3053 19.4698 18.1779C19.5676 16.9383 19.6121 15.9195 19.6388 15.3082C19.6476 15.1044 19.8966 14.994 20.0656 15.1214C20.2524 15.2657 20.4925 15.4695 20.7593 15.7327C21.4885 16.4374 21.9242 17.0317 22.0043 17.2525L20.6081 17.8977C20.4035 17.9996 20.368 18.2713 20.5458 18.4072ZM20.7415 7.42909C20.7593 7.38664 20.9549 7.01306 21.1505 7.08948C21.195 7.10646 21.2662 7.19985 21.3106 7.36117C21.4529 7.8621 21.524 8.91491 20.9015 9.69603C20.8749 9.72999 20.8571 9.78093 20.866 9.82338C20.8926 9.96772 20.777 10.4092 20.5903 10.5875C20.6436 10.18 20.6792 9.76395 20.6881 9.33094C20.6881 9.22057 20.7593 9.11868 20.866 9.08472L20.8749 9.07623C20.9549 9.05076 21.0083 8.96585 20.9905 8.88095C20.9282 8.55831 21.0705 8.17625 21.1594 7.98097C21.1772 7.93852 21.1683 7.88757 21.1239 7.8621C21.1061 7.84512 21.0794 7.84512 21.0616 7.84512C21.0349 7.84512 21.0171 7.85361 20.9994 7.87059C20.9282 7.92153 20.8571 7.97248 20.777 8.02342C20.7504 8.0404 20.7148 8.0404 20.6881 8.02342C20.6614 8.00644 20.6436 7.98097 20.6436 7.94701C20.6525 7.80267 20.6881 7.63286 20.7415 7.42909ZM11.6974 4.79707C12.0175 3.93105 12.8713 1.62167 16.1794 1.62167C17.5667 1.62167 18.6783 2.0292 19.4965 2.83579C20.279 3.60842 20.528 4.49991 20.5814 4.75462C20.7326 5.42536 20.5103 6.74137 20.368 7.47154C20.3413 7.5989 20.3235 7.70928 20.3057 7.78569C20.279 7.89606 20.279 8.00644 20.2879 8.11681C20.2879 8.15927 20.2968 8.20172 20.2968 8.23568C20.4302 9.89131 20.119 11.2413 19.8344 12.0733C19.7544 12.3196 19.6565 12.5658 19.5498 12.795L19.5143 12.8629C19.2919 13.3299 18.9629 13.678 18.7317 13.8903C18.7228 13.8988 18.7139 13.8988 18.705 13.8903C18.6961 13.8903 18.6872 13.8818 18.6872 13.8733C18.6872 13.8054 18.6961 13.729 18.6961 13.6441C18.6961 13.6016 18.6783 13.5592 18.6339 13.5422C18.5716 13.5167 18.5005 13.5422 18.4827 13.6016C18.3137 14.094 17.8424 15.2233 17.211 15.2233C16.7575 15.2233 16.6507 15.011 16.544 14.7988C16.464 14.6289 16.3751 14.4591 16.1083 14.4591C15.8059 14.4591 15.6992 14.6629 15.6014 14.8582C15.4947 15.0704 15.388 15.2657 15.0411 15.2657C15.0322 15.2657 15.0322 15.2657 15.0233 15.2657C14.4275 15.2572 13.9295 14.0686 13.7428 13.5592C13.725 13.5167 13.6894 13.4912 13.6361 13.4912C13.6272 13.4912 13.6183 13.4912 13.6183 13.4912C13.5649 13.4997 13.5293 13.5422 13.5293 13.6016C13.5293 13.6356 13.5293 13.6695 13.5382 13.7035C13.5382 13.729 13.5204 13.7375 13.5116 13.7375C13.5027 13.7375 13.4849 13.7459 13.4671 13.729C13.2092 13.5167 12.8535 13.1771 12.6489 12.778C12.3288 12.0564 12.1243 11.2413 12.0353 10.3583C11.9464 9.46679 12.0087 8.69416 12.0442 8.32058C12.0531 8.23568 12.062 8.15927 12.0798 8.07436C12.0887 7.98946 12.0887 7.90455 12.0531 7.81965C12.0442 7.78569 12.0264 7.74324 12.0087 7.70078C11.8575 7.25928 11.3862 5.6546 11.6974 4.79707ZM19.1141 16.3185L18.2337 17.3798C18.1625 17.4647 18.0291 17.4562 17.9758 17.3713C17.6734 16.9383 17.2644 16.5648 16.7663 16.2251C16.713 16.1912 16.7308 16.1063 16.8019 16.0978C17.38 16.0129 17.8869 15.7412 18.1803 15.3931C18.4115 15.3167 18.6694 15.2148 18.9095 15.1129C19.0785 15.045 19.2564 15.1638 19.2564 15.3336C19.2564 15.5035 19.2208 15.9365 19.203 16.1317C19.1763 16.2082 19.1496 16.2676 19.1141 16.3185ZM19.1763 17.1081C19.1585 17.4647 19.123 17.9062 19.0785 18.3987C18.7228 18.3732 18.3937 18.3562 18.3404 18.3477C18.0914 18.3392 17.8424 18.3308 17.5934 18.3223C17.6645 18.2034 17.7357 18.0845 17.7801 18.0081C17.8157 17.9572 17.8869 17.9402 17.9402 17.9911C18.0647 18.11 18.2692 18.093 18.376 17.9572L19.0429 17.0657C19.0874 17.0063 19.1763 17.0402 19.1763 17.1081ZM14.3208 17.4647C14.2674 17.5411 14.1518 17.5411 14.0896 17.4732L13.1558 16.4714C13.058 16.361 12.9958 16.2336 12.9869 16.0893C12.9602 15.8006 12.9424 15.5204 12.9246 15.2657C12.9157 15.1384 13.0669 15.0535 13.1825 15.1129C13.5027 15.2912 13.9295 15.4865 14.4275 15.6138C14.6676 15.8006 15.0678 15.9789 15.4235 16.0468C15.5125 16.0638 15.5391 16.1657 15.4769 16.2251C15.0233 16.6242 14.6321 17.0402 14.3208 17.4647ZM14.6943 18.3223C14.5431 18.3308 14.3919 18.3308 14.2408 18.3392C14.1341 18.3477 13.6627 18.3732 13.2537 18.3987C13.2181 17.9996 13.1825 17.5072 13.1558 17.2525C13.1558 17.2015 13.227 17.1761 13.2626 17.2185L13.9206 18.0081C14.054 18.1609 14.2941 18.1694 14.4364 18.0251C14.472 17.9826 14.5431 17.9911 14.5698 18.0421L14.6943 18.3223ZM11.4306 18.1609L10.1234 17.7619C9.98107 17.7194 9.91882 17.5666 9.99886 17.4393C10.4702 16.6751 11.1016 15.9365 12.0087 15.4186C12.2577 15.2742 12.5778 15.427 12.6045 15.7072C12.6578 16.4119 12.7645 17.2864 12.8802 18.1355C12.8979 18.2883 12.7823 18.4241 12.6223 18.4411C12.6134 18.4411 12.6045 18.4411 12.5956 18.4411C12.2577 18.4666 11.9108 18.5006 11.5729 18.5345C11.6618 18.4072 11.5996 18.2119 11.4306 18.1609ZM12.8446 13.9922L12.8268 13.8054C13.0491 14.1025 13.3159 14.4082 13.6361 14.6969C13.725 14.7733 13.7961 14.8582 13.8584 14.9516C13.5293 14.7988 13.2714 14.6205 13.1025 14.4761C12.9513 14.3573 12.8535 14.179 12.8446 13.9922ZM15.0678 17.3289C15.3079 17.0147 15.5925 16.7431 15.9215 16.4883C16.046 16.3949 16.2328 16.3865 16.3662 16.4714C16.7308 16.7091 17.0598 16.9723 17.3177 17.2864C17.4689 17.4647 17.4867 17.711 17.38 17.9232L17.1843 18.3053C16.8553 18.2968 16.5262 18.2968 16.2061 18.2968C15.8593 18.2968 15.5036 18.3053 15.1567 18.3053L14.9967 17.8977C14.9077 17.711 14.9433 17.4987 15.0678 17.3289ZM18.9807 14.6289C18.874 14.6714 18.7761 14.7054 18.6694 14.7393C18.6694 14.7393 18.6694 14.7308 18.6605 14.7308C18.6605 14.7308 18.6605 14.7308 18.6516 14.7223C18.8117 14.5695 19.0696 14.2978 19.3453 13.8903L19.3097 14.179C19.3097 14.3827 19.1763 14.5525 18.9807 14.6289ZM11.7241 7.99795C11.7152 8.02342 11.6974 8.0404 11.6796 8.04889C11.6529 8.05738 11.6263 8.05738 11.5996 8.04889C11.5018 7.99795 11.4128 7.93852 11.3328 7.87059C11.2972 7.84512 11.2439 7.84512 11.2083 7.87059C11.1727 7.89606 11.1549 7.94701 11.1727 7.98097C11.2705 8.19323 11.4128 8.59228 11.3328 8.9234C11.315 8.99132 11.3595 9.05925 11.4306 9.07623C11.4395 9.07623 11.4395 9.07623 11.4484 9.07623C11.5462 9.11019 11.6174 9.20358 11.6174 9.30547C11.6174 9.67056 11.6263 10.0441 11.6618 10.4007C11.6707 10.4602 11.6707 10.5111 11.6796 10.5705C11.6796 10.579 11.6707 10.5875 11.6707 10.5875C11.6618 10.5875 11.6529 10.5875 11.644 10.579C11.4573 10.4007 11.3506 9.95074 11.3684 9.8064C11.3773 9.75546 11.3595 9.71301 11.3328 9.67056C10.7192 8.88944 10.7814 7.83663 10.9326 7.34419C10.9771 7.18287 11.0482 7.08948 11.0927 7.0725C11.1105 7.06401 11.1283 7.06401 11.146 7.06401C11.3328 7.06401 11.4929 7.41211 11.5018 7.41211C11.564 7.57343 11.6885 7.89606 11.7241 7.99795ZM2.93791 18.0421C2.93791 12.9139 6.24606 8.27813 11.2172 6.39327C11.2617 6.37628 11.315 6.40176 11.3239 6.4527C11.3328 6.52062 11.3506 6.60552 11.3595 6.67345C11.3684 6.72439 11.3239 6.76684 11.2705 6.75835C11.1727 6.74137 11.0749 6.74986 10.9771 6.78382C10.8081 6.85175 10.6836 7.02155 10.6036 7.27627C10.4257 7.87059 10.399 8.90642 10.9326 9.7215C10.9949 9.8064 11.0215 9.91678 11.0215 10.0187C11.0126 10.2734 11.1905 10.63 11.4128 10.8422C11.4662 10.8932 11.5284 10.9356 11.5907 10.9696C11.6974 11.0205 11.7685 11.1139 11.7863 11.2158C11.8753 11.7507 12.0353 12.4469 12.4355 13.1771L12.5067 14.145C12.5333 14.4506 12.3733 14.7393 12.1065 14.9006C11.6174 15.1893 11.1816 15.5035 10.7992 15.8601C9.55422 16.3355 5.57909 17.8808 5.02774 18.4157C4.76095 18.6704 4.72538 18.9251 4.80541 19.1968C4.76095 19.443 4.46748 20.8269 3.96948 22.2278C3.92502 22.3467 3.75605 22.3467 3.71159 22.2278C3.20469 20.9033 2.93791 19.4939 2.93791 18.0421ZM5.1967 25.0551C4.8232 24.5372 4.49416 23.9854 4.20959 23.4165C4.08509 23.1703 4.0762 22.8901 4.17402 22.6354C4.53863 21.659 4.81431 20.6401 4.97438 19.9779C5.00106 19.876 5.13445 19.859 5.18781 19.9439C5.38345 20.2411 5.59688 20.5637 5.72138 20.9458C5.73917 21.0052 5.8281 20.9882 5.8281 20.9288C5.81031 20.5892 5.73917 20.1137 5.49017 19.7656C5.09888 19.2307 4.96549 18.9336 5.26784 18.6449C5.64134 18.2883 8.078 17.2779 9.86547 16.5732C9.97218 16.5308 10.0611 16.6497 9.99886 16.7346C9.78543 17.0317 9.59868 17.3544 9.4475 17.694C9.39414 17.7874 9.4475 17.8977 9.55422 17.9317L10.8615 18.3308C11.0126 18.3817 10.9949 18.594 10.8348 18.6109C9.83879 18.7298 8.84278 18.8826 7.86457 19.0609C7.64225 19.1034 7.43771 19.2138 7.29542 19.3751C7.11756 19.5873 7.05531 19.8505 7.10867 20.1137L7.89125 25.2929C7.63335 25.2929 7.38435 25.3014 7.12646 25.3014C6.68181 25.3099 6.23717 25.3183 5.78363 25.3268C5.54352 25.3438 5.33009 25.2419 5.1967 25.0551ZM8.24696 25.3014L7.4466 20.0543C7.41103 19.8845 7.45549 19.7147 7.58 19.5873C7.66003 19.4939 7.78453 19.4345 7.91792 19.409C10.6569 18.8996 13.4404 18.6364 16.2061 18.6364C18.9718 18.6364 21.7553 18.8911 24.4943 19.409C24.6277 19.4345 24.7522 19.5024 24.8322 19.5873C24.9478 19.7147 25.0012 19.8845 24.9656 20.0543L24.0763 25.3014C21.444 25.2674 18.8117 25.2419 16.1794 25.2419C13.5382 25.2419 10.8881 25.2589 8.24696 25.3014ZM24.7699 25.3099C24.5921 25.3099 24.4676 25.157 24.4943 24.9957L25.3124 20.1222C25.3747 19.842 25.2857 19.5619 25.0812 19.3411C24.9478 19.1968 24.7611 19.1119 24.5565 19.0694C23.5694 18.8826 22.5734 18.7383 21.5774 18.6194C21.4173 18.6024 21.2662 18.5345 21.1417 18.4411L21.0349 18.3562C20.9282 18.2713 20.946 18.1185 21.0705 18.0591C21.0705 18.0591 22.1199 17.6685 22.36 17.4053C22.44 17.3119 22.3955 17.1166 22.0309 16.6327C22.0132 16.6072 21.9865 16.5732 21.9687 16.5478C21.8887 16.4459 22.0132 16.31 22.1288 16.378C23.7651 17.2525 26.2195 18.5091 27.3044 18.8317C27.4289 18.8656 27.4734 18.9336 27.5001 18.976C27.6512 19.2987 27.3044 20.0713 26.9754 20.8184C26.7086 21.4128 26.4151 22.075 26.264 22.7033C26.2462 22.7882 26.3618 22.8307 26.4062 22.7542C26.6641 22.2618 27.0821 21.4382 27.2955 20.9543C27.34 20.8524 27.3845 20.759 27.4289 20.6571C27.4823 20.5383 27.669 20.5552 27.6957 20.6826L28.0781 22.4231C28.1404 22.7118 28.1137 23.0175 27.9803 23.2807C27.6868 23.8835 27.3489 24.4608 26.9665 25.0042C26.8242 25.2165 26.5752 25.3353 26.3084 25.3268C25.9527 25.3183 25.6059 25.3183 25.2502 25.3099C25.0901 25.3099 24.93 25.3099 24.7699 25.3099Z" fill="#272A24"/>
<path d="M41.4952 17.8844C41.0772 18.0457 40.1968 18.2156 39.4854 18.2156C38.3738 18.2156 37.529 17.9184 36.8887 17.2986C36.0527 16.5175 35.6081 15.1505 35.6348 13.5458C35.6792 10.1667 37.6979 8.76575 39.7611 8.76575C40.4992 8.76575 41.0416 8.90159 41.3529 9.04593L41.0239 10.5997C40.7482 10.4638 40.3747 10.3874 39.9122 10.3874C38.6317 10.3874 37.609 11.2365 37.609 13.6477C37.609 15.8807 38.5161 16.6873 39.3965 16.6873C39.5654 16.6873 39.6988 16.6703 39.77 16.6363V14.4034H38.8985V12.926H41.5041V17.8844H41.4952Z" fill="white"/>
<path d="M42.9181 8.84326H44.8123V16.595H47.3023V18.1233H42.9181V8.84326Z" fill="white"/>
<path d="M53.7407 13.326C53.7407 16.8241 52.4423 18.242 50.5926 18.242C48.3961 18.242 47.5246 16.0175 47.5246 13.4704C47.5246 10.9318 48.5828 8.74123 50.7349 8.74123C53.0737 8.73274 53.7407 11.195 53.7407 13.326ZM49.4899 13.4874C49.4899 15.593 49.899 16.6712 50.6638 16.6712C51.4641 16.6712 51.7665 15.2873 51.7665 13.4109C51.7665 11.7723 51.5086 10.3035 50.6549 10.3035C49.899 10.3035 49.4899 11.4921 49.4899 13.4874Z" fill="white"/>
<path d="M58.7651 16.0091L58.3383 18.1317H56.5063L58.614 8.84326H60.8816L62.7758 18.1233H60.935L60.517 16.0007H58.7651V16.0091ZM60.3481 14.6082L60.0279 12.6639C59.9301 12.1036 59.8056 11.1696 59.7078 10.5583H59.6722C59.5655 11.1781 59.4232 12.1375 59.3254 12.6724L58.9697 14.6082H60.3481Z" fill="white"/>
<path d="M68.2538 17.9861C67.9781 18.105 67.4534 18.2069 66.7954 18.2069C64.3142 18.2069 63.1226 16.2541 63.1226 13.6221C63.1226 10.124 65.1591 8.75708 67.0444 8.75708C67.7113 8.75708 68.1738 8.88444 68.3694 9.0033L68.0581 10.5231C67.8358 10.4212 67.5957 10.3363 67.1778 10.3363C66.1017 10.3363 65.1324 11.2278 65.1324 13.5202C65.1324 15.7362 66.0128 16.6022 67.16 16.6022C67.4801 16.6022 67.8447 16.5343 68.067 16.4664L68.2538 17.9861Z" fill="white"/>
<path d="M71.0641 16.0091L70.6373 18.1317H68.8053L70.9129 8.84326H73.1806L75.0748 18.1233H73.234L72.816 16.0007H71.0641V16.0091ZM72.6471 14.6082L72.3269 12.6639C72.2291 12.1036 72.1046 11.1696 72.0068 10.5583H71.9712C71.8645 11.1781 71.7222 12.1375 71.6244 12.6724L71.2687 14.6082H72.6471Z" fill="white"/>
<path d="M76.1329 8.97859C76.6043 8.87671 77.2979 8.80029 78.0538 8.80029C79.281 8.80029 80.1347 9.07199 80.7572 9.62386C81.5932 10.3371 82.02 11.5682 82.02 13.3681C82.02 15.253 81.5131 16.5775 80.6683 17.2992C80.0013 17.902 79.0498 18.1992 77.6981 18.1992C77.1023 18.1992 76.5064 18.1397 76.1329 18.0973V8.97859ZM78.0182 16.6964C78.116 16.7218 78.2583 16.7218 78.3562 16.7218C79.2721 16.7218 80.0636 15.8728 80.0636 13.3087C80.0636 11.3984 79.5478 10.2437 78.4006 10.2437C78.2672 10.2437 78.1427 10.2521 78.0182 10.2861V16.6964Z" fill="white"/>
<path d="M87.3202 14.0479H85.1059V16.561H87.6048V18.1233H83.2117V8.84326H87.4358V10.4055H85.1059V12.5366H87.3202V14.0479Z" fill="white"/>
<path d="M94.8436 14.8793C94.7903 13.9878 94.7369 12.7991 94.7547 11.7973H94.7191C94.5413 12.7906 94.2834 13.9368 94.1055 14.6585L93.2607 17.9698H91.9178L91.1086 14.7095C90.9218 13.9623 90.6639 12.8076 90.5128 11.7973H90.4772C90.4505 12.8076 90.3794 13.9793 90.3349 14.8963L90.1659 18.1141H88.5474L89.25 8.83411H91.242L92.0157 12.1963C92.2824 13.3765 92.5315 14.3953 92.7004 15.4481H92.736C92.8872 14.4208 93.1006 13.368 93.3585 12.1963L94.1233 8.83411H96.1153L96.7022 18.1141H95.0126L94.8436 14.8793Z" fill="white"/>
<path d="M99.1211 18.1226V14.5736L96.9868 8.8426H99.0055L99.6635 11.0501C99.8503 11.6529 100.028 12.3406 100.17 13.0199H100.197C100.322 12.3491 100.473 11.6784 100.651 11.0076L101.22 8.83411H103.176L101.006 14.4972V18.1226H99.1211Z" fill="white"/>
</svg>
